# xmcd CD database file
#
# Track frame offsets:
#	150
#	42440
#	83307
#	99847
#	114867
#	143102
#	178772
#	199595
#
# Disc length: 2931 seconds
#
# Revision: 0
# Processed by: cddbd v1.5.2PL0 Copyright (c) Steve Scherf et al.
# Submitted via: CDex 1.75
#
DISCID=580b7108
DTITLE=Miles Davis - Miles Davis Super Hits
DYEAR=2001
DGENRE=Jazz
TTITLE0=So What
TTITLE1=Some Day My Prince Will Come
TTITLE2=Time After Time
TTITLE3=Summertime
TTITLE4=Eighty-One
TTITLE5=Bye Bye Blackbird
TTITLE6=New Rhumba
TTITLE7=Human Nature
EXTD=YEAR: 2001
EXTT0=
EXTT1=
EXTT2=
EXTT3=
EXTT4=
EXTT5=
EXTT6=
EXTT7=
PLAYORDER=
